<svg xmlns="http://www.w3.org/2000/svg" xmlns:xlink="http://www.w3.org/1999/xlink" viewBox="0 0 110 93.8"><defs><style>.cls-1{fill:none;}.cls-2{clip-path:url(#clip-path);}.cls-3{fill:#fff;}.cls-4{clip-path:url(#clip-path-2);}.cls-5{clip-path:url(#clip-path-3);}.cls-6{clip-path:url(#clip-path-4);}</style><clipPath id="clip-path" transform="translate(-0.1 0)"><rect class="cls-1" x="19.6" width="90.4" height="24.3"/></clipPath><clipPath id="clip-path-2" transform="translate(-0.1 0)"><rect class="cls-1" x="43.6" y="26.9" width="66.4" height="21.3"/></clipPath><clipPath id="clip-path-3" transform="translate(-0.1 0)"><rect class="cls-1" y="41.6" width="110" height="25.3"/></clipPath><clipPath id="clip-path-4" transform="translate(-0.1 0)"><rect class="cls-1" x="23.6" y="69.6" width="86.4" height="24.4"/></clipPath></defs><title>Asset 2</title><g id="Layer_2" data-name="Layer 2"><g id="Layer_1-2" data-name="Layer 1"><g class="cls-2"><path class="cls-3" d="M30,20.6a10.24,10.24,0,0,0,10.1-8.9H57.6l7.5,10.8a1.43,1.43,0,0,0,1.2.6h42.4a1.43,1.43,0,0,0,1.4-1.4,1.37,1.37,0,0,0-1.4-1.4H66.9L59.4,9.5a1.38,1.38,0,0,0-1.1-.6H40.1a10.19,10.19,0,0,0-20.3,1.3A10.42,10.42,0,0,0,30,20.6ZM30,2.9a7.4,7.4,0,1,1-7.4,7.4A7.38,7.38,0,0,1,30,2.9Z" transform="translate(-0.1 0)"/></g><g class="cls-4"><path class="cls-3" d="M108.6,36.4H64.5a10.2,10.2,0,1,0,0,2.6h44.1a1.43,1.43,0,0,0,1.4-1.4A1.34,1.34,0,0,0,108.6,36.4ZM54.4,45.2A7.38,7.38,0,0,1,47,37.8a7.47,7.47,0,0,1,7.4-7.5,7.45,7.45,0,0,1,0,14.9Z" transform="translate(-0.1 0)"/></g><g class="cls-5"><path class="cls-3" d="M108.6,54.1H70.1a1.43,1.43,0,0,0-1.2.6l-5.4,8.6H39.9L34,52.4a1.21,1.21,0,0,0-1.2-.7H20.4a10.2,10.2,0,1,0,0,2.6H31.9l5.9,10.9a1.21,1.21,0,0,0,1.2.7H64.3a1.43,1.43,0,0,0,1.2-.6l5.4-8.6h37.7a1.43,1.43,0,0,0,1.4-1.4A1.34,1.34,0,0,0,108.6,54.1ZM10.2,60.6a7.4,7.4,0,1,1,7.4-7.4A7.26,7.26,0,0,1,10.2,60.6Z" transform="translate(-0.1 0)"/></g><g class="cls-6"><path class="cls-3" d="M108.6,70.4H86.4a1.39,1.39,0,0,0-1.2.7L78.6,82.3H45.1a10.2,10.2,0,1,0,0,2.6H79.4a1.39,1.39,0,0,0,1.2-.7L87.2,73h21.4a1.43,1.43,0,0,0,1.4-1.4A1.34,1.34,0,0,0,108.6,70.4ZM35.1,91.1a7.4,7.4,0,1,1,7.4-7.4A7.38,7.38,0,0,1,35.1,91.1Z" transform="translate(-0.1 0)"/></g></g></g></svg>