<svg xmlns="http://www.w3.org/2000/svg" xmlns:xlink="http://www.w3.org/1999/xlink" viewBox="0 0 375.38 93.8"><defs><style>.cls-1{fill:none;}.cls-2{clip-path:url(#clip-path);}.cls-3{fill:#fff;}.cls-4{clip-path:url(#clip-path-2);}.cls-5{clip-path:url(#clip-path-3);}.cls-6{clip-path:url(#clip-path-4);}</style><clipPath id="clip-path" transform="translate(-0.1 0)"><rect class="cls-1" x="19.6" width="90.4" height="24.3"/></clipPath><clipPath id="clip-path-2" transform="translate(-0.1 0)"><rect class="cls-1" x="43.6" y="26.9" width="66.4" height="21.3"/></clipPath><clipPath id="clip-path-3" transform="translate(-0.1 0)"><rect class="cls-1" y="41.6" width="110" height="25.3"/></clipPath><clipPath id="clip-path-4" transform="translate(-0.1 0)"><rect class="cls-1" x="23.6" y="69.6" width="86.4" height="24.4"/></clipPath></defs><title>Asset 1</title><g id="Layer_2" data-name="Layer 2"><g id="Layer_1-2" data-name="Layer 1"><g class="cls-2"><path class="cls-3" d="M30,20.6a10.24,10.24,0,0,0,10.1-8.9H57.6l7.5,10.8a1.43,1.43,0,0,0,1.2.6h42.4a1.43,1.43,0,0,0,1.4-1.4,1.37,1.37,0,0,0-1.4-1.4H66.9L59.4,9.5a1.38,1.38,0,0,0-1.1-.6H40.1a10.19,10.19,0,0,0-20.3,1.3A10.42,10.42,0,0,0,30,20.6ZM30,2.9a7.4,7.4,0,1,1-7.4,7.4A7.38,7.38,0,0,1,30,2.9Z" transform="translate(-0.1 0)"/></g><g class="cls-4"><path class="cls-3" d="M108.6,36.4H64.5a10.2,10.2,0,1,0,0,2.6h44.1a1.43,1.43,0,0,0,1.4-1.4A1.34,1.34,0,0,0,108.6,36.4ZM54.4,45.2A7.38,7.38,0,0,1,47,37.8a7.47,7.47,0,0,1,7.4-7.5,7.45,7.45,0,0,1,0,14.9Z" transform="translate(-0.1 0)"/></g><g class="cls-5"><path class="cls-3" d="M108.6,54.1H70.1a1.43,1.43,0,0,0-1.2.6l-5.4,8.6H39.9L34,52.4a1.21,1.21,0,0,0-1.2-.7H20.4a10.2,10.2,0,1,0,0,2.6H31.9l5.9,10.9a1.21,1.21,0,0,0,1.2.7H64.3a1.43,1.43,0,0,0,1.2-.6l5.4-8.6h37.7a1.43,1.43,0,0,0,1.4-1.4A1.34,1.34,0,0,0,108.6,54.1ZM10.2,60.6a7.4,7.4,0,1,1,7.4-7.4A7.26,7.26,0,0,1,10.2,60.6Z" transform="translate(-0.1 0)"/></g><g class="cls-6"><path class="cls-3" d="M108.6,70.4H86.4a1.39,1.39,0,0,0-1.2.7L78.6,82.3H45.1a10.2,10.2,0,1,0,0,2.6H79.4a1.39,1.39,0,0,0,1.2-.7L87.2,73h21.4a1.43,1.43,0,0,0,1.4-1.4A1.34,1.34,0,0,0,108.6,70.4ZM35.1,91.1a7.4,7.4,0,1,1,7.4-7.4A7.38,7.38,0,0,1,35.1,91.1Z" transform="translate(-0.1 0)"/></g><path class="cls-3" d="M133,18.83h-13.2c-.2,0-.8.1-.8,1v2.3c0,.9.6,1,.8,1h12.4a1.75,1.75,0,0,1,1.5.6,3.44,3.44,0,0,1,.5,2,2.83,2.83,0,0,1-.5,2,1.75,1.75,0,0,1-1.5.6h-12.4c-.2,0-.8.1-.8,1v11.9c0,.9.6,1,.8,1h2.6c.2,0,.8-.1.8-1v-8.7h9.7a4.91,4.91,0,0,0,4.2-1.8,8.37,8.37,0,0,0,1.3-5.1v.2c0-2.3-.4-4-1.3-5.1A4.43,4.43,0,0,0,133,18.83Z" transform="translate(-0.1 0)"/><path class="cls-3" d="M163.66,20.93a5,5,0,0,0-2.2-1.6,10.23,10.23,0,0,0-3.2-.5h-6.9a9.77,9.77,0,0,0-3.2.5,4.52,4.52,0,0,0-2.2,1.6,7.19,7.19,0,0,0-1.2,2.8,15.42,15.42,0,0,0-.4,4v5.6a16.24,16.24,0,0,0,.4,4.1,9.08,9.08,0,0,0,1.2,2.8,5,5,0,0,0,2.2,1.6,9.33,9.33,0,0,0,3.2.5h6.9a9.77,9.77,0,0,0,3.2-.5,5,5,0,0,0,2.2-1.6,6,6,0,0,0,1.2-2.8,22.72,22.72,0,0,0,.4-4.1v-5.6a15.42,15.42,0,0,0-.4-4A6,6,0,0,0,163.66,20.93Zm-2.6,6.4v6.6A13.42,13.42,0,0,1,161,36a3.92,3.92,0,0,1-.5,1.3,1.56,1.56,0,0,1-.8.6,6.8,6.8,0,0,1-1.5.2h-6.7a4.64,4.64,0,0,1-1.4-.2,1.46,1.46,0,0,1-.9-.6,3.2,3.2,0,0,1-.5-1.3,13.42,13.42,0,0,1-.1-2.1v-6.6c0-.8.1-1.5.1-2.1a3.92,3.92,0,0,1,.5-1.3,1.46,1.46,0,0,1,.9-.6,5.9,5.9,0,0,1,1.4-.2h6.7a6.05,6.05,0,0,1,1.5.2,1,1,0,0,1,.8.6,3.2,3.2,0,0,1,.5,1.3A12.17,12.17,0,0,1,161.06,27.33Z" transform="translate(-0.1 0)"/><path class="cls-3" d="M205.55,18.53h-3.1a.76.76,0,0,0-.8.6l-5.4,17.1v.1h-.1v-.1l-5-17.1a.76.76,0,0,0-.8-.6h-3.2a.76.76,0,0,0-.8.6L181,36.23v.1h-.1v-.1l-5-17.1a.76.76,0,0,0-.8-.6h-3c-.5,0-.6.3-.6.4a.63.63,0,0,0,.1.7l5.9,19.7c.1.1.1.3.2.4a3.45,3.45,0,0,0,3.4,2.5,3.61,3.61,0,0,0,2-.6,1.38,1.38,0,0,0,.4-.3,8.6,8.6,0,0,0,1.3-2.1l4.2-13.1,3.9,13.1c.1.1.1.3.2.4a3.45,3.45,0,0,0,3.4,2.5,3.61,3.61,0,0,0,2-.6,1.38,1.38,0,0,0,.4-.3,8.6,8.6,0,0,0,1.3-2.1l6.3-19.7a2,2,0,0,0,.1-.7C206.15,18.83,206.05,18.53,205.55,18.53Z" transform="translate(-0.1 0)"/><path class="cls-3" d="M229.31,37.23h-10a6.05,6.05,0,0,1-1.5-.2,1.8,1.8,0,0,1-.9-.6,3.2,3.2,0,0,1-.5-1.3,1.09,1.09,0,0,0-.1-.5,13.4,13.4,0,0,1,.1-2h12.7c.2,0,.8-.1.8-1v-2.2c0-.9-.6-1-.8-1h-14.7a2.47,2.47,0,0,0-1.9,1.2,2.12,2.12,0,0,0-.3.7l-.1,3.6V34a15.86,15.86,0,0,0,.4,3.4,9.08,9.08,0,0,0,1.2,2.8,5,5,0,0,0,2.2,1.6,9.77,9.77,0,0,0,3.2.5h10.1c.3,0,.8-.1.8-1v-3.1C230.21,37.33,229.61,37.23,229.31,37.23Zm.1-18.4H213c-.2,0-.8.1-.8,1V22c0,.9.5,1,.8,1h16.4c.2,0,.8-.1.8-1v-2.2C230.21,18.93,229.61,18.83,229.41,18.83Z" transform="translate(-0.1 0)"/><path class="cls-3" d="M255.52,25.63h0v0Zm.6,15.5-5-8.5a4.79,4.79,0,0,0,3.2-1.7,9.75,9.75,0,0,0,1.3-5.1,9.12,9.12,0,0,0-1.3-5.1,4.91,4.91,0,0,0-4.2-1.8h-13.2c-.3,0-.8.1-.8,1v2.2c0,.9.6,1,.8,1h12.4a1.75,1.75,0,0,1,1.5.6,3.44,3.44,0,0,1,.5,2,2.83,2.83,0,0,1-.5,2,1.75,1.75,0,0,1-1.5.6h-12.4c-.3,0-.8.1-.8,1v11.9c0,.9.6,1,.8,1h2.6c.3,0,.8-.1.8-1v-8.7h6l5.1,9.1a1.38,1.38,0,0,0,.3.4.85.85,0,0,0,.6.2h3.1a.73.73,0,0,0,.7-.6A.45.45,0,0,0,256.12,41.13Z" transform="translate(-0.1 0)"/><path class="cls-3" d="M296.59,18.83H294c-.2,0-.8.1-.8,1v8.5h-10.8v-8.5c0-.9-.5-1-.8-1H279c-.3,0-.8.1-.8,1v21.5c0,.9.6,1,.8,1h2.6c.3,0,.8-.1.8-1v-8.8h10.8v8.8c0,.9.5,1,.8,1h2.6c.3,0,.8-.1.8-1V19.83C297.39,19,296.89,18.83,296.59,18.83Z" transform="translate(-0.1 0)"/><path class="cls-3" d="M318.67,21.53c-.1-.1-.1-.3-.2-.4a3.54,3.54,0,0,0-3.4-2.5,3.61,3.61,0,0,0-2,.6,1.38,1.38,0,0,0-.4.3,8.6,8.6,0,0,0-1.3,2.1l-7.9,19.7a2,2,0,0,0-.1.7c0,.2.2.4.6.4h3.1a.76.76,0,0,0,.8-.6l1.6-4.1h6.2a.67.67,0,0,0,.7-.4.75.75,0,0,0,.1-.8l-1-2.5a1,1,0,0,0-.8-.6h-3.5l3.6-9.2a.1.1,0,0,1,.1-.1h.1v.1l7.1,17.6a.76.76,0,0,0,.8.6h3c.5,0,.6-.3.6-.4s0-.4-.1-.7Z" transform="translate(-0.1 0)"/><path class="cls-3" d="M350.08,18.83h-10.3a9.77,9.77,0,0,0-3.2.5,4.52,4.52,0,0,0-2.2,1.6,7.27,7.27,0,0,0-1.3,2.8,15.91,15.91,0,0,0-.4,4v5.6a16.24,16.24,0,0,0,.4,4.1,8,8,0,0,0,1.3,2.8,5,5,0,0,0,2.2,1.6,10.23,10.23,0,0,0,3.2.5h10.3c.2,0,.8-.1.8-1v-2.2c0-.9-.6-1-.8-1h-10.2a6.05,6.05,0,0,1-1.5-.2,1.8,1.8,0,0,1-.9-.6A3.2,3.2,0,0,1,337,36a13.42,13.42,0,0,1-.1-2.1v-6.6c0-.8.1-1.6.1-2.1a5,5,0,0,1,.5-1.3,1.46,1.46,0,0,1,.9-.6,6.05,6.05,0,0,1,1.5-.2h10.2c.2,0,.8-.1.8-1v-2.2C350.88,19,350.38,18.83,350.08,18.83Z" transform="translate(-0.1 0)"/><path class="cls-3" d="M370.48,32.53a10.5,10.5,0,0,0-1.7-2.2c.2-.2.3-.5.5-.7.2-.4.5-.8.8-1.3l4.7-8.3a1.48,1.48,0,0,0,.1-.7.67.67,0,0,0-.7-.5h-2.8a.85.85,0,0,0-.6.2,1.38,1.38,0,0,0-.3.4l-4.3,7.6a4.23,4.23,0,0,1-.5.7,1,1,0,0,1-.5.4c-.2.1-.4.1-.6.2s-.5.1-.9.1h-2.6v-8.5c0-.9-.6-1-.8-1h-2.6c-.2,0-.8.1-.8,1v21.5c0,.9.6,1,.8,1h2.6c.2,0,.8-.1.8-1v-8.8H364a2.81,2.81,0,0,1,1.5.3,2.64,2.64,0,0,1,.9,1.1l4.4,7.8a1.38,1.38,0,0,0,.3.4.85.85,0,0,0,.6.2h3.1a.66.66,0,0,0,.7-.6,1.48,1.48,0,0,0-.1-.7Z" transform="translate(-0.1 0)"/><path class="cls-3" d="M131.45,55.88h-12.7c-.2,0-.6.1-.6.7v1.5c0,.6.4.7.6.7h5v12.3c0,.6.4.7.5.7h1.8c.2,0,.5-.1.5-.7V58.78h4.9c.2,0,.6-.1.6-.7v-1.5C132.05,56,131.65,55.88,131.45,55.88Z" transform="translate(-0.1 0)"/><path class="cls-3" d="M147.63,68.28h-6.8c-.4,0-.7-.1-1-.1a1.27,1.27,0,0,1-.6-.4,1.22,1.22,0,0,1-.3-.9v-1.7h8.6c.2,0,.5-.1.5-.7V63c0-.6-.4-.7-.5-.7h-9.9a1.44,1.44,0,0,0-1.3.8c-.1.2-.2.3-.2.5v2.5a14,14,0,0,0,.2,2.3,6.78,6.78,0,0,0,.8,1.9,4.18,4.18,0,0,0,1.5,1.1,6.65,6.65,0,0,0,2.1.3h6.8c.2,0,.6-.1.6-.7v-2.1A.55.55,0,0,0,147.63,68.28Zm0-12.4h-11c-.2,0-.5.1-.5.7v1.5c0,.6.4.7.5.7h11c.2,0,.5-.1.5-.7v-1.5C148.13,56,147.73,55.88,147.63,55.88Z" transform="translate(-0.1 0)"/><path class="cls-3" d="M163.91,55.88h-7a7.32,7.32,0,0,0-2.2.3,3.27,3.27,0,0,0-1.5,1.1,3.67,3.67,0,0,0-.8,1.9,11,11,0,0,0-.2,2.7v3.8a21.58,21.58,0,0,0,.2,2.8,8.35,8.35,0,0,0,.8,1.9,4.18,4.18,0,0,0,1.5,1.1,6.87,6.87,0,0,0,2.2.3h7c.2,0,.5-.1.5-.7v-1.5c0-.6-.4-.7-.5-.7H157a3.08,3.08,0,0,1-1-.1,1.27,1.27,0,0,1-.6-.4,1.14,1.14,0,0,1-.3-.8,6.15,6.15,0,0,1-.1-1.4v-4.5a5.31,5.31,0,0,1,.1-1.4,3.39,3.39,0,0,1,.3-.8,1.27,1.27,0,0,1,.6-.4,3.08,3.08,0,0,1,1-.1h6.9c.2,0,.5-.1.5-.7v-1.5C164.41,56,164,55.88,163.91,55.88Z" transform="translate(-0.1 0)"/><path class="cls-3" d="M180.82,55.88H179c-.2,0-.5.1-.5.7v5.7h-7.3v-5.7c0-.6-.4-.7-.5-.7H169c-.2,0-.6.1-.6.7v14.5c0,.6.4.7.6.7h1.7c.2,0,.5-.1.5-.7v-5.9h7.3v5.9c0,.6.4.7.5.7h1.8c.2,0,.6-.1.6-.7V56.58C181.42,56,181,55.88,180.82,55.88Z" transform="translate(-0.1 0)"/><path class="cls-3" d="M199.05,55.88h-1.7c-.2,0-.5.1-.5.7v11.5h-.1l-.1-.1-6.1-10.8a5.74,5.74,0,0,1-.4-.7c-.1-.2-.3-.3-.4-.4s-.3-.2-.5-.2h-2.1a1.36,1.36,0,0,0-1.2.5,3.16,3.16,0,0,0-.4,1.9V71c0,.6.4.7.6.7h1.7c.2,0,.5-.1.5-.7V59.48h.1l.1.1,6.1,10.8a5.74,5.74,0,0,1,.4.7c.1.2.3.3.4.4s.3.2.5.2.4.1.7.1h1.4a1.21,1.21,0,0,0,1.2-.6,3,3,0,0,0,.4-1.9V56.58C199.55,56,199.15,55.88,199.05,55.88Z" transform="translate(-0.1 0)"/><path class="cls-3" d="M216.66,57.28a4.18,4.18,0,0,0-1.5-1.1,6.87,6.87,0,0,0-2.2-.3h-4.7a6.23,6.23,0,0,0-2.1.3,3.27,3.27,0,0,0-1.5,1.1,3.67,3.67,0,0,0-.8,1.9,10.59,10.59,0,0,0-.2,2.7v3.8a18.7,18.7,0,0,0,.2,2.7,6.78,6.78,0,0,0,.8,1.9,3.27,3.27,0,0,0,1.5,1.1,6.65,6.65,0,0,0,2.1.3H213a7.32,7.32,0,0,0,2.2-.3,3.27,3.27,0,0,0,1.5-1.1,3.67,3.67,0,0,0,.8-1.9,11.15,11.15,0,0,0,.3-2.7v-3.8a10.06,10.06,0,0,0-.3-2.7A4.74,4.74,0,0,0,216.66,57.28Zm-1.8,4.3v4.5a5.72,5.72,0,0,1-.1,1.4,3.39,3.39,0,0,1-.3.8.92.92,0,0,1-.6.4,3.08,3.08,0,0,1-1,.1h-4.5a3.08,3.08,0,0,1-1-.1,1.27,1.27,0,0,1-.6-.4,1.14,1.14,0,0,1-.3-.8,6.15,6.15,0,0,1-.1-1.4v-4.5a5.72,5.72,0,0,1,.1-1.4,4.65,4.65,0,0,1,.3-.9.92.92,0,0,1,.6-.4,3.08,3.08,0,0,1,1-.1h4.5c.4,0,.7.1,1,.1a1.27,1.27,0,0,1,.6.4,1.22,1.22,0,0,1,.3.9A5.72,5.72,0,0,1,214.86,61.58Z" transform="translate(-0.1 0)"/><path class="cls-3" d="M232.78,68.88h-6.2a3.08,3.08,0,0,1-1-.1,2.09,2.09,0,0,1-.6-.4,1.14,1.14,0,0,1-.3-.8,6.15,6.15,0,0,1-.1-1.4v-9.5c0-.6-.4-.7-.5-.7h-1.8c-.2,0-.6.1-.6.7v9.1a10.06,10.06,0,0,0,.3,2.7,4.74,4.74,0,0,0,.8,1.9,3.27,3.27,0,0,0,1.5,1.1,6.65,6.65,0,0,0,2.1.3h6.3c.2,0,.5-.1.5-.7v-1.5C233.38,69,233,68.88,232.78,68.88Z" transform="translate(-0.1 0)"/><path class="cls-3" d="M250.4,57.28a4.18,4.18,0,0,0-1.5-1.1,6.87,6.87,0,0,0-2.2-.3h-4.6a6.23,6.23,0,0,0-2.1.3,3.27,3.27,0,0,0-1.5,1.1,3.67,3.67,0,0,0-.8,1.9,10.59,10.59,0,0,0-.2,2.7v3.8a18.7,18.7,0,0,0,.2,2.7,6.78,6.78,0,0,0,.8,1.9,3.27,3.27,0,0,0,1.5,1.1,6.65,6.65,0,0,0,2.1.3h4.7a7.32,7.32,0,0,0,2.2-.3,3.27,3.27,0,0,0,1.5-1.1,3.67,3.67,0,0,0,.8-1.9,11.15,11.15,0,0,0,.3-2.7v-3.8a10.06,10.06,0,0,0-.3-2.7A4.8,4.8,0,0,0,250.4,57.28Zm-1.8,4.3v4.5a5.72,5.72,0,0,1-.1,1.4,3.39,3.39,0,0,1-.3.8.92.92,0,0,1-.6.4,3.08,3.08,0,0,1-1,.1h-4.5a3.08,3.08,0,0,1-1-.1,1.27,1.27,0,0,1-.6-.4,1.14,1.14,0,0,1-.3-.8,6.15,6.15,0,0,1-.1-1.4v-4.5a5.72,5.72,0,0,1,.1-1.4,4.65,4.65,0,0,1,.3-.9.92.92,0,0,1,.6-.4,3.08,3.08,0,0,1,1-.1h4.5c.4,0,.7.1,1,.1a1.27,1.27,0,0,1,.6.4,1.22,1.22,0,0,1,.3.9A5.72,5.72,0,0,1,248.6,61.58Z" transform="translate(-0.1 0)"/><path class="cls-3" d="M268.52,55.88h-8.2a7.32,7.32,0,0,0-2.2.3,3.27,3.27,0,0,0-1.5,1.1,3.67,3.67,0,0,0-.8,1.9,11,11,0,0,0-.2,2.7v3.8a21.58,21.58,0,0,0,.2,2.8,8.35,8.35,0,0,0,.8,1.9,4.18,4.18,0,0,0,1.5,1.1,6.87,6.87,0,0,0,2.2.3h6.6a2.14,2.14,0,0,0,1.7-.8,4.47,4.47,0,0,0,.6-2.7v-5.1c0-.7-.4-.8-.7-.8h-6.8c-.2,0-.5.1-.5.7v1.5c0,.6.4.7.5.7h4.8V68a1.85,1.85,0,0,1-.2,1c-.1.2-.3.2-.5.2h-5.4a3.08,3.08,0,0,1-1-.1,1.27,1.27,0,0,1-.6-.4,1.91,1.91,0,0,1-.3-.8,6.15,6.15,0,0,1-.1-1.4v-4.4a5.31,5.31,0,0,1,.1-1.4,6.89,6.89,0,0,1,.3-.8,1.27,1.27,0,0,1,.6-.4,3.08,3.08,0,0,1,1-.1h8.2c.2,0,.5-.1.5-.7v-1.5C269,56,268.62,55.88,268.52,55.88Z" transform="translate(-0.1 0)"/><path class="cls-3" d="M287.28,55.88h-2.1a.86.86,0,0,0-.6.3l-4.2,7.7-4.2-7.7a.72.72,0,0,0-.6-.4h-2.2a.27.27,0,0,0-.3.3.6.6,0,0,0,.1.4l5.7,10.4v4.2c0,.6.4.7.5.7h1.8c.2,0,.5-.1.5-.7v-4.2l5.8-10.3a.6.6,0,0,0,.1-.4A.32.32,0,0,0,287.28,55.88Z" transform="translate(-0.1 0)"/></g></g></svg>